<svg xmlns="http://www.w3.org/2000/svg" xmlns:xlink="http://www.w3.org/1999/xlink" width="500" zoomAndPan="magnify" viewBox="0 0 375 374.999991" height="500" preserveAspectRatio="xMidYMid meet" version="1.0"><defs><clipPath id="d7fbd467c5"><path d="M 90 1 L 285.515625 1 L 285.515625 375 L 90 375 Z M 90 1 " clip-rule="nonzero"/></clipPath></defs><g clip-path="url(#d7fbd467c5)"><path fill="#ffbd59" d="M 147.351562 374.453125 C 146.328125 374.453125 145.285156 374.257812 144.285156 373.851562 C 140.660156 372.359375 138.617188 368.507812 139.417969 364.671875 L 169.800781 220.347656 L 98.6875 220.347656 C 95.679688 220.347656 92.929688 218.6875 91.515625 216.035156 C 90.105469 213.382812 90.292969 210.160156 91.980469 207.679688 L 229.863281 4.910156 C 232.058594 1.699219 236.203125 0.507812 239.75 2.015625 C 243.308594 3.53125 245.3125 7.359375 244.511719 11.148438 L 214.121094 155.460938 L 277.125 155.460938 C 280.085938 155.460938 282.816406 157.078125 284.238281 159.679688 C 285.664062 162.277344 285.550781 165.445312 283.953125 167.945312 L 154.179688 370.714844 C 152.65625 373.105469 150.050781 374.453125 147.351562 374.453125 Z M 147.351562 374.453125 " fill-opacity="1" fill-rule="nonzero"/></g></svg>